<?xml version="1.0" encoding="UTF-8"?>
<svg width="16px" height="16px" viewBox="0 0 16 16" version="1.1" xmlns="http://www.w3.org/2000/svg" xmlns:xlink="http://www.w3.org/1999/xlink">
    <title>Icons / Outline / 24 / Cursors / Hand</title>
    <defs>
        <filter id="filter-1">
            <feColorMatrix in="SourceGraphic" type="matrix" values="0 0 0 0 1.000000 0 0 0 0 1.000000 0 0 0 0 1.000000 0 0 0 1.000000 0"></feColorMatrix>
        </filter>
    </defs>
    <g id="Interactive---development-layouts" stroke="none" stroke-width="1" fill="none" fill-rule="evenodd">
        <g id="click-card---desktop" transform="translate(-306.000000, -8.000000)">
            <g id="click-cta" transform="translate(298.000000, 0.000000)">
                <g id="Icons-/-Outline-/-24-/-Cursors-/-Hand" transform="translate(8.000000, 8.000000)" filter="url(#filter-1)">
                    <g>
                        <path d="M7.63697574,10.3440825 L4.9472136,15.7236068 C4.74134009,16.1353538 4.1354968,16.0736348 4.01688253,15.6288313 L0.0168825302,0.628831325 C-0.0821548415,0.257441181 0.257441181,-0.0821548415 0.628831325,0.0168825302 L15.6288313,4.01688253 C16.0736348,4.1354968 16.1353538,4.74134009 15.7236068,4.9472136 L10.3440825,7.63697574 L14.8535,12.1463932 C15.2125697,12.5053544 15.414302,12.9922755 15.414302,13.5 C15.414302,14.0077245 15.2125697,14.4946456 14.8536068,14.8535 C14.4946456,15.2125697 14.0077245,15.414302 13.5,15.414302 C12.9922755,15.414302 12.5053544,15.2125697 12.1464466,14.8535534 L7.63697574,10.3440825 Z M1.2056443,1.2056443 L4.64304136,14.0958833 L7.0527864,9.2763932 C7.20541095,8.97114411 7.61223279,8.90512601 7.85355339,9.14644661 L12.8536068,14.1465 C13.025023,14.317968 13.2575443,14.414302 13.5,14.414302 C13.7424557,14.414302 13.974977,14.317968 14.1465,14.1463932 C14.317968,13.974977 14.414302,13.7424557 14.414302,13.5 C14.414302,13.2575443 14.317968,13.025023 14.1464466,12.8535534 L9.14644661,7.85355339 C8.90512601,7.61223279 8.97114411,7.20541095 9.2763932,7.0527864 L14.0958833,4.64304136 L1.2056443,1.2056443 Z" id="Path" fill="#000000" fill-rule="nonzero"></path>
                    </g>
                </g>
            </g>
        </g>
    </g>
</svg>