<?xml version="1.0" encoding="UTF-8"?>
<svg width="16px" height="16px" viewBox="0 0 16 16" version="1.1" xmlns="http://www.w3.org/2000/svg" xmlns:xlink="http://www.w3.org/1999/xlink">
    <title>Icons / Outline / 24 / Cursors / Hand</title>
    <defs>
        <filter id="filter-1">
            <feColorMatrix in="SourceGraphic" type="matrix" values="0 0 0 0 1.000000 0 0 0 0 1.000000 0 0 0 0 1.000000 0 0 0 1.000000 0"></feColorMatrix>
        </filter>
    </defs>
    <g id="Interactive---development-layouts" stroke="none" stroke-width="1" fill="none" fill-rule="evenodd">
        <g id="click-card---mobile" transform="translate(-101.000000, -8.000000)">
            <g id="click-cta" transform="translate(93.000000, 0.000000)">
                <g id="Icons-/-Outline-/-24-/-Cursors-/-Hand" transform="translate(8.000000, 8.000000)" filter="url(#filter-1)">
                    <g>
                        <path d="M7.75,5.63474214 L7.75,2 C7.75,0.8954305 6.8545695,0 5.75,0 C4.6454305,0 3.75,0.8954305 3.75,2 L3.75,10 C3.75,10.2761424 3.97385763,10.5 4.25,10.5 C4.52614237,10.5 4.75,10.2761424 4.75,10 L4.75,2 C4.75,1.44771525 5.19771525,1 5.75,1 C6.30228475,1 6.75,1.44771525 6.75,2 L6.75,6.111 C6.75,6.37769399 6.95931613,6.59744483 7.22569484,6.61040891 L12.8556948,6.88440891 C13.2972158,6.9059546 13.7068056,7.12121264 13.9750013,7.47268636 C14.243197,7.82416009 14.3426801,8.27604829 14.2468796,8.70765573 L12.8488947,15 L4.34039516,15 C4.26598957,14.9693399 4.15746746,14.9182802 4.02407147,14.8441714 C3.71134665,14.6704354 3.39707972,14.4399729 3.10355339,14.1464466 C2.25831819,13.3012114 1.75,12.1151356 1.75,10.5 L1.75,8.5 C1.75,8.22385763 1.97385763,8 2.25,8 C2.52614237,8 2.75,7.77614237 2.75,7.5 C2.75,7.22385763 2.52614237,7 2.25,7 C1.42157288,7 0.75,7.67157288 0.75,8.5 L0.75,10.5 C0.75,12.3848644 1.36668181,13.8237886 2.39644661,14.8535534 C3.02039011,15.4774969 3.64894751,15.8266954 4.09188612,15.9743416 L4.25,16 L13.25,16 C13.4843582,16 13.6872701,15.8372219 13.7380987,15.608442 L15.2230987,8.92444203 C15.3827879,8.20499854 15.2169828,7.45185154 14.7699899,6.86606199 C14.3229971,6.28027244 13.6403474,5.92150905 12.9043704,5.88559427 L7.75,5.63474214 Z" id="Path" fill="#000000" fill-rule="nonzero"></path>
                    </g>
                </g>
            </g>
        </g>
    </g>
</svg>